HIERARCHY
ROOT Hips
{
	OFFSET	0.00	0.00	0.00
	CHANNELS 6 Xposition Yposition Zposition Zrotation Xrotation Yrotation
	JOINT LeftUpLeg
	{
		OFFSET	 0.126116	-0.014019	-0.065224
		CHANNELS 3 Zrotation Xrotation Yrotation
		JOINT LeftLeg
		{
			OFFSET	 0.000000	 0.000000	 0.569914
			CHANNELS 3 Zrotation Xrotation Yrotation
			JOINT LeftFoot
			{
				OFFSET	 0.000000	 0.000000	 0.544423
				CHANNELS 3 Zrotation Xrotation Yrotation
				JOINT LeftToeBase
				{
					OFFSET	 0.000000	 0.000000	 0.207117
					CHANNELS 3 Zrotation Xrotation Yrotation
					End Site
					{
						OFFSET	 0.000000	 0.000000	 0.207117
					}
				}
			}
		}
	}
	JOINT RightUpLeg
	{
		OFFSET	-0.124023	-0.008373	-0.065224
		CHANNELS 3 Zrotation Xrotation Yrotation
		JOINT RightLeg
		{
			OFFSET	 0.000000	 0.000000	 0.570047
			CHANNELS 3 Zrotation Xrotation Yrotation
			JOINT RightFoot
			{
				OFFSET	 0.000000	 0.000000	 0.544354
				CHANNELS 3 Zrotation Xrotation Yrotation
				JOINT RightToeBase
				{
					OFFSET	 0.000000	 0.000000	 0.207540
					CHANNELS 3 Zrotation Xrotation Yrotation
					End Site
					{
						OFFSET	 0.000000	 0.000000	 0.207540
					}
				}
			}
		}
	}
	JOINT Spine
	{
		OFFSET	 0.000184	-0.007763	 0.117403
		CHANNELS 3 Zrotation Xrotation Yrotation
		JOINT Spine1
		{
			OFFSET	 0.000000	 0.000000	 0.137269
			CHANNELS 3 Zrotation Xrotation Yrotation
			JOINT Spine2
			{
				OFFSET	 0.000000	 0.000000	 0.156879
				CHANNELS 3 Zrotation Xrotation Yrotation
				JOINT LeftShoulder
				{
					OFFSET	 0.080501	-0.002496	 0.160144
					CHANNELS 3 Zrotation Xrotation Yrotation
					JOINT LeftArm
					{
						OFFSET	 0.000000	 0.000000	 0.164363
						CHANNELS 3 Zrotation Xrotation Yrotation
						JOINT LeftForeArm
						{
							OFFSET	 0.000000	 0.000000	 0.364576
							CHANNELS 3 Zrotation Xrotation Yrotation
							JOINT LeftHand
							{
								OFFSET	 0.000000	 0.000000	 0.360812
								CHANNELS 3 Zrotation Xrotation Yrotation
								JOINT LeftHandIndex1
								{
									OFFSET	 0.000000	 0.000000	 0.086006
									CHANNELS 3 Zrotation Xrotation Yrotation
									JOINT LeftHandIndex2
									{
										OFFSET	 0.000000	 0.000000	 0.047236
										CHANNELS 3 Zrotation Xrotation Yrotation
										JOINT LeftHandIndex3
										{
											OFFSET	-0.004284	-0.000551	 0.038166
											CHANNELS 3 Zrotation Xrotation Yrotation
											End Site
											{
												OFFSET	-0.004284	-0.000551	 0.038166
											}
										}
									}
								}
							}
						}
					}
				}
				JOINT Neck
				{
					OFFSET	 0.000000	 0.000000	 0.176489
					CHANNELS 3 Zrotation Xrotation Yrotation
					JOINT Head
					{
						OFFSET	 0.000000	-0.001747	 0.077940
						CHANNELS 3 Zrotation Xrotation Yrotation
						End Site
						{
							OFFSET	 0.000000	-0.001747	 0.077940
						}
					}
				}
				JOINT RightShoulder
				{
					OFFSET	-0.080363	 0.000306	 0.159706
					CHANNELS 3 Zrotation Xrotation Yrotation
					JOINT RightArm
					{
						OFFSET	 0.000000	 0.000000	 0.164196
						CHANNELS 3 Zrotation Xrotation Yrotation
						JOINT RightForeArm
						{
							OFFSET	 0.000000	 0.000000	 0.365611
							CHANNELS 3 Zrotation Xrotation Yrotation
							JOINT RightHand
							{
								OFFSET	 0.000000	 0.000000	 0.360648
								CHANNELS 3 Zrotation Xrotation Yrotation
								JOINT RightHandIndex1
								{
									OFFSET	 0.000000	 0.000000	 0.069977
									CHANNELS 3 Zrotation Xrotation Yrotation
									JOINT RightHandIndex2
									{
										OFFSET	 0.000000	 0.000000	 0.052305
										CHANNELS 3 Zrotation Xrotation Yrotation
										JOINT RightHandIndex3
										{
											OFFSET	 0.009002	-0.000782	 0.042196
											CHANNELS 3 Zrotation Xrotation Yrotation
											End Site
											{
												OFFSET	 0.009002	-0.000782	 0.042196
											}
										}
									}
								}
							}
						}
					}
				}
			}
		}
	}
}
MOTION
Frames:    8
Frame Time: 0.03333334
-0.000624	 0.018847	 1.273984	 0.002082	-0.000660	-0.177197	 19.209370	-2.208716	 175.988200	 1.493681	-10.177190	-0.591725	-8.029013	 67.951190	 2.138395	-2.385833	 28.452760	 0.000004	-19.256760	-3.178663	-175.785500	-1.465050	-11.526650	 0.659859	 7.975668	 68.596360	-2.204029	 2.384658	 28.388730	 0.000004	 41.440910	 2.770632	-0.097280	 2.045891	 3.575414	 0.810679	-6.155943	-4.386374	-1.334344	-91.776280	 78.527430	-179.999900	 44.159560	 31.156320	-53.375830	-27.853440	 3.743345	-9.833840	-42.817580	 1.632630	-3.971298	-2.635965	 4.993658	 6.788941	-5.165319	 0.784187	 3.516649	-5.225038	 0.466231	 0.424329	-0.000002	-3.783157	-0.089647	-5.986562	 4.729867	 0.247451	 89.782090	 78.203900	 180.000000	 2.268048	 12.849800	 105.147800	-14.588440	 3.437421	 9.985480	 17.606700	-1.365725	-5.945941	 6.112037	 4.509576	-0.364401	 4.968462	 1.518543	-9.347576	 5.168945	 0.703820	 2.021906
-0.000622	 0.018800	 1.274311	 0.002180	-0.000023	-0.171136	 19.209570	-2.214404	 175.982900	 1.493609	-10.184060	-0.592132	-8.026444	 67.919180	 2.136935	-2.385833	 28.452760	 0.000004	-19.258820	-3.168597	-175.789800	-1.465229	-11.511060	 0.658944	 7.969259	 68.553810	-2.198930	 2.384658	 28.388730	 0.000004	 41.053420	 2.769832	-0.092011	 1.982985	 3.572247	 0.787034	-5.966187	-4.392900	-1.294067	-91.776280	 78.527450	-179.999900	 44.160380	 31.190480	-53.398480	-25.917820	 3.090312	-8.992068	-41.844470	 1.393276	-4.038085	-2.635965	 4.993658	 6.788941	-5.165319	 0.784187	 3.516649	-5.225038	 0.466231	 0.424329	-0.000002	-3.783157	-0.089647	-5.801117	 4.755524	 0.241074	 89.782140	 78.203870	 179.999900	 2.239882	 12.914370	 105.160500	-16.579040	 2.777292	 9.132505	 16.609020	-1.478960	-5.942684	 6.112037	 4.509576	-0.364401	 4.968462	 1.518543	-9.347576	 5.168945	 0.703820	 2.021906
-0.000610	 0.018750	 1.274561	 0.002441	 0.000804	-0.164841	 19.209690	-2.219399	 175.977300	 1.493560	-10.188750	-0.592411	-8.023787	 67.889920	 2.135374	-2.385833	 28.452760	 0.000004	-19.260710	-3.158159	-175.794400	-1.465433	-11.494220	 0.657951	 7.963332	 68.514400	-2.193875	 2.384658	 28.388730	 0.000004	 40.193440	 2.768510	-0.086420	 1.917095	 3.570140	 0.762469	-5.767738	-4.400971	-1.252124	-91.776240	 78.527450	-180.000000	 44.173130	 31.232270	-53.443070	-24.148820	 2.548844	-8.197111	-40.963000	 1.010268	-4.128405	-2.635965	 4.993658	 6.788941	-5.165319	 0.784187	 3.516649	-5.225038	 0.466231	 0.424329	-0.000002	-3.783157	-0.089647	-5.607210	 4.780830	 0.234243	 89.782230	 78.203830	 179.999900	 2.181912	 12.970150	 105.150100	-18.402430	 2.232248	 8.327213	 15.679980	-1.752495	-5.910350	 6.112037	 4.509576	-0.364401	 4.968462	 1.518543	-9.347576	 5.168945	 0.703820	 2.021906
-0.000582	 0.018685	 1.274735	 0.002717	 0.001719	-0.157543	 19.195670	-2.224229	 175.971500	 1.493498	-10.194530	-0.592756	-8.038426	 67.859910	 2.137297	-2.385833	 28.452760	 0.000004	-19.276550	-3.147178	-175.799300	-1.465659	-11.474450	 0.656792	 7.939443	 68.472790	-2.184378	 2.384658	 28.388730	 0.000004	 38.823650	 2.766764	-0.079709	 1.839501	 3.568680	 0.733493	-5.534000	-4.411328	-1.202747	-91.776190	 78.527470	-180.000000	 44.194080	 31.291210	-53.509140	-22.272610	 2.036113	-7.334720	-40.036440	 0.454818	-4.241652	-2.635965	 4.993658	 6.788941	-5.165319	 0.784187	 3.516649	-5.225038	 0.466231	 0.424329	-0.000002	-3.783157	-0.089647	-5.378862	 4.809034	 0.226017	 89.782100	 78.203900	 180.000000	 2.233808	 13.067540	 105.140900	-20.337240	 1.715002	 7.456393	 14.677220	-2.191873	-5.858663	 6.112037	 4.509576	-0.364401	 4.968462	 1.518543	-9.347576	 5.168945	 0.703820	 2.021906
-0.000550	 0.018620	 1.274880	 0.003000	 0.002648	-0.149691	 19.195720	-2.231309	 175.964600	 1.493421	-10.202260	-0.593213	-8.036325	 67.832530	 2.136433	-2.385833	 28.452760	 0.000004	-19.278750	-3.134706	-175.805100	-1.465896	-11.454130	 0.655596	 7.932798	 68.431920	-2.178674	 2.384658	 28.388730	 0.000004	 37.073660	 2.764746	-0.072514	 1.756162	 3.567941	 0.702239	-5.282950	-4.422952	-1.149645	-91.776160	 78.527470	 180.000000	 44.221320	 31.359250	-53.588620	-20.427940	 1.594134	-6.470523	-39.133130	-0.223143	-4.359896	-2.635965	 4.993658	 6.788941	-5.165319	 0.784187	 3.516649	-5.225038	 0.466231	 0.424329	-0.000002	-3.783157	-0.089647	-5.133670	 4.837621	 0.216983	 89.782040	 78.203890	-180.000000	 2.200085	 13.140760	 105.110600	-22.239650	 1.268155	 6.578248	 13.676260	-2.747006	-5.801480	 6.112037	 4.509576	-0.364401	 4.968462	 1.518543	-9.347576	 5.168945	 0.703820	 2.021906
-0.000518	 0.018558	 1.275084	 0.003286	 0.003636	-0.140723	 19.195690	-2.239521	 175.956800	 1.493326	-10.211530	-0.593764	-8.034354	 67.804400	 2.135739	-2.385833	 28.452760	 0.000004	-19.281160	-3.120241	-175.811900	-1.466171	-11.430400	 0.654203	 7.925390	 68.387790	-2.172212	 2.384658	 28.388730	 0.000004	 34.798770	 2.762386	-0.064012	 1.659364	 3.567719	 0.665802	-4.991289	-4.436602	-1.087852	-91.776160	 78.527450	 180.000000	 44.254670	 31.442120	-53.686740	-18.443920	 1.184568	-5.521954	-38.169250	-1.080953	-4.484568	-2.635965	 4.993658	 6.788941	-5.165319	 0.784187	 3.516649	-5.225038	 0.466231	 0.424329	-0.000002	-3.783157	-0.089647	-4.848951	 4.868851	 0.206257	 89.782150	 78.203870	 180.000000	 1.846352	 13.150840	 105.021800	-24.289190	 0.855010	 5.619348	 12.590470	-3.453807	-5.743474	 6.112037	 4.509576	-0.364401	 4.968462	 1.518543	-9.347576	 5.168945	 0.703820	 2.021906
-0.000497	 0.018515	 1.275394	 0.003544	 0.004582	-0.131368	 19.195570	-2.248755	 175.948800	 1.493204	-10.222780	-0.594433	-8.032897	 67.778370	 2.135548	-2.385833	 28.452760	 0.000004	-19.283560	-3.105398	-175.818900	-1.466461	-11.406130	 0.652775	 7.918010	 68.344410	-2.165743	 2.384658	 28.388730	 0.000004	 32.202470	 2.759889	-0.054938	 1.557118	 3.568015	 0.627148	-4.683155	-4.450861	-1.022417	-91.776120	 78.527490	 179.999900	 44.290760	 31.528220	-53.790170	-16.487050	 0.849475	-4.572918	-37.224620	-2.042194	-4.596010	-2.635965	 4.993658	 6.788941	-5.165319	 0.784187	 3.516649	-5.225038	 0.466231	 0.424329	-0.000002	-3.783157	-0.089647	-4.548302	 4.899647	 0.194680	 89.782060	 78.203870	-180.000000	 0.995001	 13.031130	 104.852500	-26.309890	 0.515920	 4.659952	 11.502450	-4.262089	-5.698728	 6.112037	 4.509576	-0.364401	 4.968462	 1.518543	-9.347576	 5.168945	 0.703820	 2.021906
-0.000486	 0.018488	 1.275833	 0.003783	 0.005517	-0.121136	 19.195380	-2.259672	 175.940000	 1.493049	-10.236970	-0.595276	-8.031919	 67.753150	 2.135930	-2.385833	 28.452760	 0.000004	-19.286050	-3.089492	-175.826700	-1.466757	-11.380290	 0.651257	 7.910305	 68.299510	-2.158971	 2.384658	 28.388730	 0.000004	 29.171830	 2.757223	-0.044812	 1.444001	 3.568703	 0.584311	-4.342239	-4.466149	-0.949876	-91.776120	 78.527430	 179.999900	 44.330120	 31.625380	-53.904300	-14.450990	 0.573316	-3.575007	-36.246120	-3.149245	-4.691663	-2.635965	 4.993658	 6.788941	-5.165319	 0.784187	 3.516649	-5.225038	 0.466231	 0.424329	-0.000002	-3.783157	-0.089647	-4.215863	 4.931240	 0.181601	 89.782080	 78.203900	-180.000000	-0.413771	 12.821170	 104.636000	-28.410370	 0.235503	 3.648049	 10.121820	-5.109556	-5.675847	 6.112037	 4.509576	-0.364401	 4.968462	 1.518543	-9.347576	 5.168945	 0.703820	 2.021906
